<svg width="481" height="353" xmlns="http://www.w3.org/2000/svg" xmlns:xlink="http://www.w3.org/1999/xlink"><defs><rect id="a" x="0" y="0" width="481" height="353" rx="6"/></defs><g fill="none" fill-rule="evenodd"><g><mask id="b" fill="#fff"><use xlink:href="#a"/></mask><use fill="#F1F1F1" xlink:href="#a"/><path d="M-16 164a23.45 23.45 0 00.497 3c-.328-.858-.474-1.885-.497-3zM68.693 34.823c2.483-2.528 3.937 1.39 3.706 3.408-.272 2.38-1.461 4.494-2.843 6.354-.148.197-.109.189-.13-.097a.573.573 0 01-.152.312c0 1.26.063 2.553-.057 3.662a85.196 85.196 0 01-1.58 9.473 46.25 46.25 0 01-.565 2.251c1.323-1.017 3.08-1.891 3.765-2.157 1.774-.69 4.49-1.393 6.144.021 1.372 1.174 1.339 3.116.103 4.367-1.471 1.488-4.006 1.298-5.893 1.046-.853-.114-5.41-.724-4.286-1.42a3.703 3.703 0 00-.455.19c-.12.364-.244.726-.373 1.085.026.018.048.036.076.053-.03-.015-.052-.031-.078-.047a42.34 42.34 0 01-5.26 10.142c.783-.264 1.59-.452 2.402-.512 2.403-.177 7.327 1.952 4.49 5.006-2.72 2.928-6.534-.568-9.416-1.174-3.025 3.806-6.33 7.431-9.778 10.923a.778.778 0 01.454.422c1.342-.597 2.753-1.479 3.975-1.673 1.765-.28 5.354-.317 6.591 1.322 1.521 2.016-.299 3.493-2.235 3.762-2.806.39-6.373-1.166-8.998-2.229-.309.039-.638-.069-.825-.325a35.66 35.66 0 00-.172-.067c-3.488 3.471-7.096 6.816-10.68 10.084h.111c.919-.54 1.896-.97 2.941-1.166 2.418-.46 5.228-.314 7.075 1.524 1.84 1.831 2.366 4.891.268 6.728-4.2 3.676-9.626-5.496-11.623-5.972-3.64 3.284-7.465 6.33-11.345 9.308a6.58 6.58 0 011.315-.198c3.661-.159 11.976 4.78 7.276 8.961-4.096 3.644-8.218-4.001-11.223-6.757-3.654 2.773-7.327 5.525-10.906 8.397 1.891-.4 3.698-.378 5.666.335 2.037.739 5.294 2.485 3.84 5.225-1.48 2.786-5.422 1.275-7.463.258-1.113-.554-3.31-2.344-5.279-3.153-5.728 4.893-10.753 10.35-14.683 16.881-2.453 4.08-4.382 8.473-5.816 13.018-.915 2.901-2.674 7.762-2.573 11.606-1.033-7.738 2.037-16.804 5.184-23.506 2.893-6.163 7.02-11.49 11.777-16.23-.95-3.47-10.192-8.892-4.349-11.763 3.103-1.517 6.046 1.427 6.552 4.407.347 2.048-.475 4.555-1.31 6.48a92.265 92.265 0 014.63-4.173 229.907 229.907 0 016.703-5.41c-3.391-3.557-6.265-13.366-1.4-14.689 7.184-1.947 3.098 11.01 2.477 13.447a.384.384 0 01-.323-.143c.028.228.062.471.105.717 4.33-3.363 8.718-6.652 12.976-10.105-.352-.291-.88-1.362-1.31-1.94-.967-1.302-1.888-2.658-2.534-4.156-1.02-2.367-1.93-6.105 1.166-7.303 3.367-1.305 4.713 2.94 4.606 5.424-.074 1.718-.624 3.325-.954 4.995-.103.52.065 2.903-.593 1.847.014.377.005.65-.022.841a184.91 184.91 0 002.279-1.89.898.898 0 01-.05-.288c0-.742.757-.988 1.265-.744a131.56 131.56 0 002.958-2.615 408.243 408.243 0 006.236-5.8c-.41-.393-.212-.895-.592-1.309-.38-.412-1.155-.67-1.606-1.059-1.134-.977-2.044-2.362-2.685-3.711-1.057-2.23-2.332-6.858 1.14-7.71 3.58-.882 5.14 3.59 5.223 6.34.017.532-.627 5.289-1.02 7.008 3.852-3.683 7.651-7.515 11.117-11.435-.986-.06-3.676-2.239-4.212-2.823-1.309-1.424-3.345-4.526-.845-5.98 2.223-1.288 4.767.882 5.583 2.904.134.333.51 3.385.48 4.744a106.431 106.431 0 004.098-5.029 51.833 51.833 0 002.424-3.46c-.162-.105-.311-.28-.45-.495-3.553-.8-7.831-6.664-3.518-8.399 2.054-.825 4.128 1.21 5.029 2.834.184.333.426 1.967.624 3.257 2.215-3.937 3.97-8.135 5.364-12.46a.787.787 0 01-.573-.762c-1.689-1.09-3.02-1.993-4.135-3.975-.693-1.231-1.91-4.025.342-4.57 2.931-.708 4.514 3.82 4.636 6.015.014.255-.025.992-.07 1.667a.969.969 0 01.3.021 95.626 95.626 0 002.043-8.14c-1.55-.592-1.388-8.924-.277-10.053zm6.748 7.52c2.505-1.089 5.687.494 4.161 3.64-1.634 3.369-7.014 3.128-10.048 2.9.305 0 1.449-3.108 1.809-3.568 1.062-1.356 2.538-2.302 4.078-2.972z" fill="#E7E7E7" mask="url(#b)" transform="rotate(-3 32 100.5)"/></g><g transform="translate(375 25)"><circle fill="#E5EAEF" cx="25.65" cy="25.65" r="25.65"/><circle fill-opacity=".1" fill="#000" cx="25.65" cy="4.95" r="1.35"/><circle fill-opacity=".1" fill="#000" cx="4.95" cy="25.65" r="1.35"/><circle fill-opacity=".1" fill="#000" cx="46.35" cy="25.65" r="1.35"/><circle fill-opacity=".1" fill="#000" cx="25.65" cy="46.35" r="1.35"/><path fill="#AFB9C5" d="M26.1 8.1l.9 17.1h-1.8zM34.215 34.215l-8.897-7.528 1.369-1.37z"/><circle fill="#C5CFD6" cx="26.1" cy="26.1" r="1.8"/></g><path d="M259.075 135.524c-4.286 0-5.845-5.129-8.28-7.943-1.742-2.013-4.715-1.413-5.595-4.232-2.213-7.088 3.71-12.077 11.438-12.077 7.727 0 12.937 4.376 14.062 10.953 1.125 6.577-3.898 13.299-11.625 13.299z" fill="#191847"/><path d="M247.396 121.442c-2.173 4.048-1.915 14.316.894 15.04 1.12.288 3.506-.419 5.934-1.881l-1.524 10.777h9l-3.098-14.433c1.728-2.027 2.897-4.511 2.702-7.295-.563-8.02-11.735-6.256-13.908-2.208z" fill="#D4A181"/><path d="M246.856 121.464c1.722.323 5.189 1.966 7.952 4.322.327-.174.701-.272 1.1-.272 1.275 0 2.308 1.007 2.308 2.249 0 .507-.172.975-.463 1.351.547.9.92 1.847 1.043 2.82 1.896 0 8.816-7.17 1.923-13.916-6.894-6.746-16.856 2.885-13.863 3.446z" fill="#191847"/><path fill="#C5CFD6" d="M277.967 192.226h-28.97L245.2 238.7h43.125z"/><path fill-opacity=".1" fill="#000" d="M277.967 192.226h-8.91l-5.333 46.474h24.601z"/><path d="M215.967 184.265l-.032-.02c-3.093-1.817-8.239.557-8.235 3.198.01 7.933 7.254 45.317 7.632 47.68.378 2.364 4.43 2.988 4.665.008.376-4.741 1.073-21.155.375-28.752a396.525 396.525 0 00-.903-8.787c3.8 6.86 9.678 16.682 17.634 29.465l4.318-1.972c-3.391-11.167-6.172-19.051-8.342-23.651-3.716-7.877-7.201-14.623-8.668-16.999-2.306-3.737-6.322-2.433-8.444-.17z" fill="#D4A181"/><path d="M241.113 218.883L226.29 183.79c-3.551-5.71-13.507 1.162-12.296 4.473 2.749 7.517 16.731 31.854 17.55 34.094l9.569-3.473z" fill="#1F28CF"/><path d="M242.854 223.68c.417.404.711.753.882 1.05.338.585.734 1.496 1.187 2.731l-18.317 10.576c-1.384-1.298-1.6-2.306-.646-3.024a117.2 117.2 0 002.36-1.815l6.006-8.272a.9.9 0 011.277-.184l.885.681c1.205-.105 2.105-.329 2.698-.672.319-.183.668-.498 1.049-.944a1.8 1.8 0 012.62-.126zM221.336 234.392c.16.557.239 1.007.239 1.35 0 .675-.113 1.661-.338 2.958h-21.15c-.55-1.816-.233-2.796.951-2.941a117.2 117.2 0 002.951-.392l9.338-4.16a.9.9 0 011.198.478l.426 1.033c1.097.511 1.987.767 2.673.767.367 0 .827-.098 1.38-.294a1.8 1.8 0 012.332 1.2z" fill="#E4E4E4"/><path d="M206.661 190.14c0 9.957 4.731 33.183 4.734 35.375l10.18.008c-1.49-20.724-2.018-31.198-1.585-31.421.65-.335 26.644 2.594 34.44 2.594 11.242 0 15.893-7.086 16.27-20.21h-22.27c-4.534.484-28.186 5.252-36.97 6.891-3.76.702-4.799 4.02-4.799 6.763z" fill="#2B44FF"/><g><path d="M281.586 162.412l-8.211.03c6.254 20.252 9.574 30.855 9.96 31.81.867 2.15-.969 5.423-1.754 7.182 2.557 1.144 2.285-3.092 5.511-1.592 2.945 1.37 5.185 3.85 8.587 1.752.418-.258.877-1.23-.23-1.988-2.76-1.891-6.736-5.2-7.273-6.29-.733-1.485-2.93-11.787-6.59-30.904zm-51.946 9.374l-10.623 10.357c-3.09 1.318-5.623 2.772-7.598 4.365-.443.535-.927 1.56 1.162 1.102 2.089-.46 4.307-.848 4.7-.17.392.68-.765 1.72-.04 2.609.484.592 2.111-1.292 4.88-5.653l11.047-6.509-3.528-6.101z" fill="#D4A181"/><path d="M256.564 139.131l-3.242-.556c-5.108 18.047-31.354 30.348-32.965 37.094-.591 2.475 1.19 3.725.27 4.479l4.215 3.083c.714-.832 2.237.69 5.418-.374 3.18-1.065 26.304-22.357 26.304-43.726z" fill="#2026A2"/><path d="M260.237 135.51l-5.91.413a3.601 3.601 0 00-3.284 2.9l-.033.006.008.146c-.03.194-.044.395-.04.599l.008.19.047.67c.011.156.032.31.062.46.633 24.422-13.458 30.539-10.353 40.208 2.542 7.915 26.873 16.423 31.083 8.665 1.705-3.141 2.478-6.94 2.565-11.07 1.076 3.173 1.927 5.905 2.553 8.195 1.08 3.95 5.267 4.578 5.267 6.1l5.516-1.522c-.374-2.067 2.227-3.074 1.53-7.693-3.125-20.695-11.519-35.696-25.183-45.003l.006.076a3.6 3.6 0 00-3.842-3.34z" fill="#1F28CF"/></g><g transform="translate(285.7 53.3)"><path d="M32.4 19.567L42.428 9.535a4.317 4.317 0 016.108 0L75.23 36.241a8.64 8.64 0 012.529 6.108V219.24h0" stroke="#CBCBCB" stroke-width="4.32"/><rect fill="#AFB9C5" x="61.56" y="218.7" width="31.86" height="3.78" rx="1.62"/><g transform="rotate(45 12.522 32.073)"><path d="M17.836.747c9.842 0 17.82 7.979 17.82 17.82v15.12H.016v-15.12c0-9.841 7.979-17.82 17.82-17.82z" fill="#C5CFD6"/><ellipse fill="#FFF" cx="17.933" cy="33.181" rx="17.82" ry="3.51"/></g></g><g><path d="M151.26 112.36c2.296 4.269 2.023 15.096-.943 15.859-1.183.304-3.702-.441-6.267-1.984l1.61 11.364h-9.504l3.272-15.219c-1.825-2.137-3.06-4.756-2.854-7.691.595-8.458 12.392-6.597 14.687-2.329z" fill="#D4A181"/><path d="M145.844 107.44c-1.253-.204-4.626-.345-5.248-.345-.397 0-.828.09-1.063-.274-.193-.298-.122-.802-.18-1.148a16.703 16.703 0 00-.258-1.195 12.134 12.134 0 00-1.264-3.205c-1.084-1.887-2.672-3.366-4.678-4.227-2.215-.95-4.72-1.167-7.103-.974-2.549.206-4.857 1.046-7.263 1.836-2.294.753-4.696 1.05-7.095.682-2.417-.37-4.243-1.678-6.282-2.919-2.087-1.27-4.472-2.101-6.94-1.91-2.302.178-4.425 1.127-6.33 2.395-1.781 1.186-3.251 2.613-4.081 4.621-.893 2.16-.892 4.532.576 6.442 2.128 2.767 6.08 3.483 9.367 3.412a17.93 17.93 0 005.564-1.018c2.394-.84 4.463-2.264 6.702-3.42a17.462 17.462 0 013.277-1.308c1.105-.312 2.193-.455 3.194.212 1.058.704 2.007 1.397 3.218 1.838 1.161.423 2.392.66 3.63.65 2.407-.018 4.78-.767 7.12-1.269 1.907-.408 3.947-.816 5.891-.423.812.164 1.997.503 2.29 1.344-4.932.892-6.87 6.98-5.479 11.448.75 2.411 5.262 5.23 7.015 3.963 1.112-.804.437-1.858 0-2.554-.836-1.333-1.122-3.046.425-3.974 1.335-.8 2.738 1.1 2.764 1.098.367-.028 3.536-1.817 5.72-4.427 2.154.128 2.48-1.29 1.966-2.449-.514-1.159-3.725-2.618-5.455-2.901z" fill="#191847"/><path d="M155.164 186.997c3.5 0 6.336 2.837 6.336 6.336v36.331c0 3.5-2.837 6.336-6.336 6.336h-45.54a6.336 6.336 0 01-6.336-6.336v-36.33c0-3.5 2.837-6.337 6.336-6.337h45.54zm-6.336 11.065H115.96c-.875 0-1.584.71-1.584 1.584v23.705c0 .875.71 1.584 1.584 1.584h32.868c.875 0 1.584-.71 1.584-1.584v-23.705c0-.874-.71-1.584-1.584-1.584z" fill="#C5CFD6"/><path d="M200.767 234.024c-7.808-9.514-13.09-16.568-15.848-21.16-4.723-7.864-8.588-14.862-9.807-17.535-2.909-6.374 6.696-9.358 8.87-6.385 3.29 4.5 10.316 18.66 21.078 42.479l-4.293 2.601z" fill="#B28B67"/><path d="M184.768 231.258l-14.53-36.5c-3.108-6.654 11.9-11.028 14.184-7.932 5.185 7.03 17.51 34.763 19.054 36.858l-18.708 7.574z" fill="#2F3676"/><path d="M146.095 223.93c2.823-4.12 13.096-17.983 18.693-23.717a424.192 424.192 0 014.663-4.704c4.412-4.38 13.214 3 8.81 6.989-10.969 9.936-26.974 23.348-28.311 24.544-1.874 1.676-5.63-.522-3.855-3.111z" fill="#B28B67"/><path d="M146.733 222.065c-.974.8-1.607 1.455-1.9 1.962-.356.617-.773 1.577-1.25 2.88l19.342 11.168c1.46-1.368 1.687-2.43.68-3.188a123.939 123.939 0 01-2.492-1.917l-6.681-9.19a.396.396 0 00-.562-.081l-1.385 1.065c-1.272-.112-2.222-.35-2.849-.711-.51-.294-1.094-.906-1.755-1.835a.792.792 0 00-1.148-.153zM197.408 232.602c-.443 1.18-.664 2.064-.664 2.65 0 .712.119 1.752.357 3.12h22.335c.58-1.916.245-2.95-1.005-3.102-1.25-.153-2.29-.29-3.117-.414l-10.381-4.618a.396.396 0 00-.527.21l-.667 1.615c-1.158.54-2.099.809-2.822.809-.589 0-1.401-.237-2.438-.711a.792.792 0 00-1.07.441z" fill="#E4E4E4"/><path d="M165.01 196.58c-12.077-1.963-20.167-3.306-24.268-4.027-11.691-2.058-15.1-8.336-13.085-22.034h21.541c2.85.821 14.761 5.902 35.732 15.242 3.773 1.87 3.07 7.38 2.381 9.196-.028.074-6.389 10.95-19.082 32.63l-17.621-11.202 14.434-18.485c.382-.766.37-1.206-.033-1.32z" fill="#5C63AB"/><g><path d="M111.41 161.31l8.114 1.607c-8.16 15.177-12.537 23.221-13.13 24.132-1.332 2.049-.089 5.804.37 7.781-2.88.67-1.744-3.658-5.39-2.754-3.327.824-6.149 2.94-9.252.087-.381-.351-.66-1.448.64-2.01 3.24-1.402 8.028-4.027 8.804-5.046 1.059-1.389 4.34-9.321 9.843-23.797zm80.26-12.15c-1.275 1.86-2.534 3.873-2.024 4.525.51.652 1.987-.067 2.57.993.39.706-2.1 1.551-7.468 2.535l-10.746 8.223-4.582-5.858 14.349-6.288c2.513-2.5 4.94-4.4 7.282-5.7.7-.222 1.895-.29.62 1.57z" fill="#D4A181"/><path d="M141.58 131.012l3.423-.586c7.459 7.22 10.502 24.566 15.473 26.862 4.7 2.171 11.361.07 19.28-2.766l2.425 5.407c-7.195 7.768-22.523 14.33-28.736 10.584-9.933-5.99-12.226-27.384-11.865-39.5z" fill="#DB2721"/><path d="M126.652 173.956h30.299c1.384 0 1.123-1.995.923-3.002-2.31-11.618-11.326-24.143-11.326-40.681l-8.74-1.368c-7.229 11.602-9.728 25.886-11.156 45.051z" fill="#F2F2F2"/><path d="M140.705 128.905c7.845 26.69 10.008 44.473 6.488 53.35H119.92c.432-6.496 1.815-13.366 3.71-20.065-6.176 11.12-11.368 19.125-15.575 24.017l-6.351-1.242c4.09-25.318 15.938-44.005 35.54-56.06z" fill="#FF4133"/></g></g><g><path d="M125.037 118.193c3.13 5.838 2.758 20.647-1.286 21.69-1.613.416-5.049-.603-8.545-2.712l2.194 15.542h-12.96l4.462-20.814c-2.488-2.924-4.173-6.507-3.891-10.522.81-11.567 16.897-9.022 20.026-3.184z" fill="#B28B67"/><path d="M115.24 112.175c6.95 0 9.584 2.868 9.72 5.405-2.978.82-8.181 1.135-15.66 1.08v.541l6.48.54 1.08 3.244c-1.719-.128-2.946 1.052-3.926 2.631a2.59 2.59 0 00-1.474-.469c-1.491 0-2.7 1.331-2.7 2.703 0 1.426.672 2.529 1.633 2.997-.512 1.006-1.028 1.735-1.633 1.867-2.334-.236-5.4-6.042-5.4-10.81 0-5.218 4.148-9.73 11.88-9.73z" fill="#191847"/><path fill="#C5CFD6" d="M81.016 220.277h41.718L128.2 287.3H66.1z"/><path fill-opacity=".1" fill="#000" d="M81.016 220.277h12.83l7.68 67.023H66.1z"/><path d="M170.295 208.795l.156-.091c4.464-2.503 11.754.896 11.749 4.675-.015 11.44-10.445 65.355-10.99 68.763-.545 3.408-6.378 4.308-6.718.01-.54-6.837-1.545-30.508-.54-41.464.415-4.523.862-8.831 1.301-12.674-5.472 9.893-13.937 24.058-25.393 42.494l-6.219-2.844c4.884-16.105 8.888-27.474 12.014-34.109 5.35-11.36 10.369-21.088 12.48-24.514 3.322-5.39 9.105-3.51 12.16-.246z" fill="#B28B67"/><path d="M134.086 258.72l21.345-50.612c5.113-8.233 19.45 1.676 17.706 6.451-3.959 10.841-24.093 45.94-25.273 49.17l-13.778-5.008z" fill="#1F28CF"/><path d="M132.9 264.48c-1.331 1.096-2.197 1.99-2.597 2.685-.488.844-1.058 2.157-1.712 3.938l26.376 15.229c1.995-1.873 2.306-3.325.934-4.359a168.527 168.527 0 01-3.398-2.615l-9.1-12.548a.54.54 0 00-.767-.11l-1.893 1.458c-1.736-.151-3.03-.473-3.886-.967-.694-.4-1.49-1.235-2.39-2.503a1.08 1.08 0 00-1.568-.208zM163.126 279.41c-.604 1.614-.906 2.822-.906 3.623 0 .975.162 2.397.487 4.267h30.457c.791-2.619.334-4.033-1.371-4.242a168.527 168.527 0 01-4.25-.565l-14.156-6.317a.54.54 0 00-.719.287l-.91 2.21c-1.578.737-2.861 1.106-3.848 1.106-.802 0-1.91-.324-3.322-.973a1.08 1.08 0 00-1.462.603z" fill="#D0CECE"/><path d="M183.696 217.268c0 14.36-6.813 47.855-6.817 51.017l-14.659.011c2.146-29.888 2.906-44.992 2.282-45.314-.936-.483-38.367 3.74-49.593 3.74-16.189 0-22.886-10.218-23.429-29.147h32.069c6.53.7 40.587 7.576 53.236 9.94 5.415 1.011 6.911 5.797 6.911 9.753z" fill="#2B44FF"/><g><path d="M70.71 181.56l9.51 1.725c-11.036 21.922-16.947 33.514-17.733 34.774-1.768 2.835.017 7.943.69 10.638-3.912.984-2.466-4.963-7.417-3.64-4.518 1.207-8.316 4.17-12.616.338-.528-.471-.936-1.965.825-2.766 4.386-1.995 10.852-5.7 11.886-7.112 1.41-1.926 6.362-13.245 14.855-33.957zm77.95 5.279l17.226 12.662c4.671 1.262 8.575 2.832 11.71 4.71.74.675 1.635 2.043-1.436 1.807-3.07-.237-6.311-.348-6.735.7-.424 1.049 1.435 2.303.578 3.717-.57.943-3.268-1.421-8.093-7.094l-17.058-7.08 3.808-9.422z" fill="#B28B67"/><path d="M117.543 141.925c8.05 16.657 18.946 32.638 35.13 46.288 2.218-.16 4.628.208 7.212 1.08a2.433 2.433 0 01.026 4.6c.494.361.993.72 1.496 1.078l-4.345 8.88c-18.286-9.127-35.473-16.007-43.305-31.073-2.628-5.057-1.739-22.233-1.99-28.482l5.776-2.37z" fill="#69A1AC"/><path d="M91.48 202.391c16.977 1.867 30.34 1.867 40.088 0 1.207-.231 1.154-5.442.594-6.866-8.722-22.163-14.46-38.388-14.46-53.783-1.6.837-4.4.962-8.402.376-10.753 15.865-15.696 34.068-17.82 60.273z" fill="#191847"/><path d="M111.108 140.822c-1.808 23.934 23.167 76.187 14.495 120.814-16.029 3.582-38.912-7.565-61.186 1.341.829-17.972 17.432-39.085 23.909-57.966a2.428 2.428 0 01-.73-2.193l.282-1.601a2.43 2.43 0 012.103-1.992c.183-.81.34-1.616.469-2.415 1.09-6.754-.773-13.377-.685-19.88-8.683 7.414-16.473 20.218-23.37 38.412l-10.198-3.003c.39-1.448.792-2.878 1.21-4.29-1.177-.665-2.554-3.735-1.563-4.249a11.903 11.903 0 013.245-1.123c9.352-28.193 24.644-48.811 45.878-61.855z" fill="#89C5CC"/><path fill-opacity=".1" fill="#000" d="M107.197 141.362l-2.786 8.576 5.61 6.428-5.07 5.052 12.267 21.023-15-20.98 4.98-5.095-4.98-5.68z"/><path d="M116.86 211.088c1.193 0 2.16.968 2.16 2.162a2.161 2.161 0 11-2.16-2.162zm-.54-12.432c1.193 0 2.16.968 2.16 2.162a2.161 2.161 0 11-2.16-2.162zm-2.7-12.431c1.193 0 2.16.968 2.16 2.162a2.161 2.161 0 11-2.16-2.162z" fill-opacity=".4" fill="#000"/></g></g><g><path d="M281.663 118.5c-3.13 5.92-2.758 20.939 1.286 21.997 1.613.422 5.05-.612 8.546-2.752l-2.195 15.763h12.96l-4.462-21.109c2.489-2.965 4.173-6.598 3.891-10.67-.81-11.73-16.897-9.15-20.026-3.23z" fill="#D4A181"/><path d="M288.689 112.737c-3.637.316-6.884 1.442-7.804 2.11 0 3.495.667 4.532 6.365 4.44 1.4.751 2.476 2.044 3.597 3.738-.496 7.014-1.808 10.522-3.937 10.522-3.193 0-5.902-2.057-7.303-2.057-1.021 0-.793 1.297-.116 2.259.558.793 3.278 1.558 3.278 2.789 0 1.23-2.149.278-2.149 1.008 0 1.207-.377 3.476 1.686 3.476 2.089 0 8.077-.773 9.103-3.92.662-2.03 1.09-6.236 1.285-12.62.125-.018.255-.026.386-.026 1.79 0 3.24 1.473 3.24 3.289 0 .922-.374 1.756-.976 2.353a49.785 49.785 0 002.553 3.354c3.617-2.203 6.3-8.651 2.764-14.846-.977-3.034-3.19-4.655-5.803-5.408-2.117-.899-4.314-1-6.17-.461z" fill="#191847"/><path d="M282.1 222.028c-7.953 0-14.4 6.447-14.4 14.4V275.6c0 7.953 6.447 14.4 14.4 14.4h50.58c7.953 0 14.4-6.447 14.4-14.4v-39.172c0-7.953-6.447-14.4-14.4-14.4H282.1zm4.32 15.349h41.94a3.6 3.6 0 013.6 3.6v30.075a3.6 3.6 0 01-3.6 3.6h-41.94a3.6 3.6 0 01-3.6-3.6v-30.075a3.6 3.6 0 013.6-3.6z" fill="#C5CFD6"/><path d="M214.154 287.26c10.647-13.198 17.85-22.982 21.611-29.353 6.44-10.907 11.71-20.613 13.374-24.321 3.966-8.841-9.131-12.981-12.095-8.858-4.487 6.242-14.068 25.883-28.744 58.923l5.854 3.608z" fill="#D4A181"/><path d="M235.97 283.422l19.815-50.63c4.238-9.23-16.228-15.296-19.342-11-7.07 9.75-23.876 48.219-25.983 51.124l25.51 10.506z" fill="#2F3676"/><path d="M289 273.338c-3.925-5.71-18.187-24.928-25.938-32.893a598.215 598.215 0 00-6.455-6.534c-6.107-6.086-18.108 3.98-12.015 9.528 15.173 13.816 37.3 32.479 39.15 34.142 2.593 2.33 7.724-.655 5.258-4.243z" fill="#B28B67"/><path d="M288.482 271.331c.995.877 1.662 1.61 2.002 2.199.494.856 1.075 2.186 1.742 3.99l-26.377 15.23c-2.013-1.905-2.334-3.376-.964-4.412a166.3 166.3 0 003.394-2.621l8.835-12.318a.9.9 0 011.285-.186l1.613 1.256c1.741-.142 3.04-.46 3.894-.953.58-.335 1.232-.977 1.953-1.925a1.8 1.8 0 012.623-.26zM219.006 286.057c.423 1.257.634 2.225.634 2.905 0 .988-.162 2.43-.487 4.327h-30.457c-.791-2.656-.334-4.09 1.371-4.302a166.3 166.3 0 004.25-.574l13.81-6.25a.9.9 0 011.205.482l.77 1.895c1.578.747 2.861 1.121 3.848 1.121.671 0 1.556-.23 2.654-.69a1.8 1.8 0 012.402 1.086z" fill="#E4E4E4"/><path d="M262.914 235.321c16.469-2.723 27.5-4.585 33.093-5.587 15.942-2.853 20.59-11.562 17.842-30.563h-29.374c-3.887 1.14-20.129 8.187-48.725 21.143-5.146 2.592-4.187 10.237-3.247 12.755.038.103 8.712 15.19 26.021 45.262l24.03-15.539-19.685-25.64c-.52-1.063-.504-1.673.045-1.83z" fill="#5C63AB"/><g><path d="M326.934 192.439l-11.285.045c6.968 22.833 10.73 34.947 11.285 36.345 1.25 3.143-1.395 7.93-2.526 10.503 3.683 1.673 3.29-4.522 7.937-2.328 4.24 2.002 7.466 5.631 12.365 2.562.602-.377 1.262-1.797-.332-2.907-3.974-2.766-9.7-7.606-10.473-9.2-1.055-2.172-3.379-13.846-6.971-35.02zm-66.136-.443l-17.225 12.84c-4.672 1.279-8.575 2.871-11.71 4.776-.74.685-1.635 2.072 1.436 1.832 3.07-.24 6.311-.352 6.735.711.424 1.064-1.435 2.335-.578 3.77.57.956 3.268-1.442 8.093-7.194l17.057-7.18-3.808-9.555z" fill="#D4A181"/><path d="M294.865 144.372l-4.67-.813c-17.325 15.192-24.44 44.379-45.677 59.84l5.111 6.431c36.841-4.63 45.973-40.23 45.236-65.458z" fill="#E87613"/><path d="M315.22 203.94h-41.316c-1.888 0-1.532-2.768-1.26-4.165 3.15-16.116 15.446-33.488 15.446-56.429l11.917-1.897c9.858 16.093 13.266 35.907 15.213 62.49z" fill="#DDE3E9"/><path d="M300.905 141.449c-.4 0-.766.025-1.099.076l-3.74.217c-10.705 36.826-13.657 61.395-8.857 73.708l32.52.001c1.926 4.56 3.77 8.397 5.53 11.51h8.861c.834-27.37-5.577-50.602-19.232-69.694 1.73-.504 3.101-1.682 4.112-3.533 4.356-7.979 2.783-12.371-1.872-13.815-4.655-1.444-8.807 1.53-16.223 1.53z" fill="#FF9B21"/><path d="M307.66 215.45l12.068.001c-2.247-5.32-4.608-11.624-7.081-18.913-1.023 8.686-2.685 14.99-4.987 18.912z" fill-opacity=".1" fill="#000"/></g></g><path d="M260.5 303.4h-18.9v-73.8h-74.7v73.8H148v-93.6h112.5v93.6z" fill="#D5DEE3"/><path fill="#FFF" d="M148 210.8l27.9-42.3H229l31.5 42.3z"/><g><path d="M419.745 205.63c1.559-.188 3.223-.121 4.672.486 3.083 1.292 3.96 4.887 3.917 7.809-.046 3.145-.722 6.58 1.7 9.114 1.113 1.165 2.499 2.057 3.592 3.243a15.306 15.306 0 012.763 4.277c1.247 2.861 1.858 6.226.719 9.228-1.004 2.642-3.528 5.028-2.983 8.033.57 3.134 3.77 5.531 5.773 7.866 2.265 2.642 4.35 6.02 4.693 9.485.329 3.32-1.136 6.68-3.383 9.19-4.49 5.016-11.24 7.475-18.045 7.46-2.889-.007-6.16-.136-8.654-1.668-.77-.474-1.177-1.006-1.635-1.745-.41-.662-.953-1.093-1.582-1.562-1.38-1.03-2.376-2.418-3.012-3.971-2.47-6.035-.496-13.5 2.961-18.858.82-1.27 1.49-2.492 1.092-4.005-.415-1.58-1.436-3.004-2.339-4.362-.892-1.342-1.91-2.622-2.607-4.073-.73-1.52-.936-3.112-.807-4.775.243-3.125 1.61-6.009 3.544-8.522 1.863-2.42 4.05-4.736 4.056-7.908.005-3.362-2.271-6.352-1.302-9.77.402-1.415 1.209-2.867 2.508-3.715 1.247-.814 2.893-1.08 4.359-1.257z" fill="#DDE3E9"/><path d="M418.726 211.004c.03-.451.572-.722 1-.604.561.155.55.673.536 1.135-.046 1.42.162 2.8.508 4.178.719 2.864 2.047 5.503 3.099 8.255 1.051 2.749 1.545 5.587.928 8.496-.581 2.743-1.495 5.415-2.09 8.161-.524 2.42-1.082 4.973-.284 7.388.769 2.324 2.468 4.216 3.691 6.316 2.533 4.348 3.657 9.171 3.807 14.134.07 2.305.007 4.631-.535 6.892-.311 1.301-.73 3.06-1.86 3.959-.521.414-1.412.558-1.85-.056-.413-.576-.051-1.467.08-2.08.565-2.656.68-5.37.544-8.067-.131-2.612-.444-5.22-1.277-7.714-.773-2.315-1.947-4.394-3.329-6.42-1.408-2.063-2.872-4.131-3.454-6.576-.59-2.484-.11-5.011.532-7.447.679-2.577 1.568-5.08 2.488-7.587.896-2.442 1.214-4.754.719-7.31-.977-5.052-3.593-9.793-3.253-15.053z" fill="#C5CFD6"/><path d="M459.342 211.843c1.924.573 3.835 1.498 5.207 2.949 2.917 3.085 2.022 7.747.412 11.152-1.734 3.665-4.36 7.35-2.88 11.555.681 1.933 1.825 3.684 2.47 5.632.69 2.082.988 4.25.95 6.422-.07 3.99-1.151 8.248-4.088 11.188-2.586 2.588-6.813 4.1-7.78 7.902-1.009 3.966 1.457 8.407 2.552 12.164 1.24 4.253 1.876 9.275.426 13.514-1.39 4.061-4.897 7.255-8.867 9.054-7.933 3.596-17.143 3.043-25.098-.44-3.377-1.48-7.136-3.297-9.234-6.364-.649-.948-.84-1.779-.982-2.879-.127-.986-.532-1.768-1.016-2.637-1.064-1.91-1.489-4.046-1.403-6.191.333-8.335 6.63-16.084 13.537-20.608 1.636-1.072 3.073-2.163 3.416-4.14.358-2.064-.075-4.255-.406-6.307-.327-2.028-.835-4.048-.876-6.104-.042-2.155.568-4.126 1.607-6.01 1.953-3.542 5.092-6.228 8.697-8.19 3.473-1.89 7.27-3.491 8.97-7.208 1.802-3.94.735-8.606 3.696-12.12 1.225-1.455 2.945-2.747 4.919-3.08 1.893-.32 3.96.207 5.77.746z" fill="#DDE3E9"/><path d="M455.41 218.357c.274-.515 1.05-.555 1.486-.197.573.47.286 1.074.024 1.609-.804 1.644-1.292 3.371-1.617 5.166-.678 3.733-.526 7.513-.755 11.284-.228 3.768-1.155 7.354-3.414 10.454-2.13 2.923-4.609 5.592-6.756 8.511-1.893 2.574-3.895 5.285-4.241 8.53-.333 3.123.647 6.218.962 9.312.654 6.404-.588 12.645-3.04 18.55-1.138 2.743-2.442 5.442-4.27 7.818-1.053 1.369-2.472 3.22-4.266 3.695-.827.22-1.942-.07-2.129-1.015-.176-.887.717-1.748 1.194-2.402 2.066-2.828 3.635-5.956 4.904-9.193 1.23-3.134 2.245-6.357 2.594-9.713.324-3.115.054-6.16-.486-9.247-.55-3.146-1.163-6.326-.548-9.496.625-3.22 2.523-5.94 4.56-8.472 2.157-2.678 4.519-5.16 6.918-7.632 2.339-2.41 3.932-4.96 4.708-8.217 1.534-6.433.991-13.343 4.173-19.345z" fill="#C5CFD6"/><g><path d="M401.185 237c3.183 0 5.981 1.68 7.91 4.064 2.257 2.79 2.713 6.198 3.63 9.524.455 1.655 1.24 3.298 2.614 4.422 1.25 1.023 2.838 1.228 4.334 1.727 2.991.999 5.407 3.404 6.36 6.34 1.164 3.58-.069 7.19.144 10.818.194 3.332 3.494 5.411 6.149 7.008 2.618 1.575 4.976 3.05 5.764 6.118.836 3.255 1.117 6.887-.041 10.102-1.928 5.353-7.57 7.71-13.023 8.075-4.948.332-11.17-.189-14.885-3.765-2.224-2.14-3.029-5.133-2.929-8.11.062-1.852.43-3.686.907-5.476.337-1.268.793-2.53.923-3.841.346-3.486-2.89-4.156-5.645-5.113-3.501-1.217-5.952-3.515-7.656-6.716-1.587-2.981-2.253-6.327-1.302-9.609a11.205 11.205 0 012.563-4.49c.526-.568 1.268-1.043 1.742-1.641.444-.558.347-1.282.194-1.936-.706-3.021-2.907-5.523-3.694-8.539-.71-2.722-.29-6.11 2.21-7.866 1.08-.76 2.411-1.088 3.731-1.096z" fill="#C5CFD6"/><path d="M405.522 244.872c3.374 3.578 4.29 8.433 4.56 13.138.15 2.638-.006 5.421.772 7.98.667 2.19 2.228 3.865 3.838 5.448 3.24 3.185 6.854 6.424 7.802 11.034.556 2.706.18 5.5.949 8.176.698 2.432 1.929 4.822 3.425 6.876 1.205 1.654 2.774 2.92 4.091 4.462.402.47.978 1.163.812 1.828-.194.778-1.19 1.024-1.896.902-1.647-.285-3.033-1.85-4.11-2.989-1.574-1.664-2.912-3.454-3.999-5.462-1.207-2.23-2.179-4.596-2.594-7.098-.431-2.595-.217-5.3-1.2-7.791-1.657-4.191-5.674-6.664-8.578-9.931-3.618-4.07-3.078-9.136-2.708-14.143.204-2.752.406-5.86-.99-8.372-.533-.959-1.722-1.853-1.95-2.943-.21-.998.935-2.008 1.776-1.115z" fill="#AFB9C5"/></g><path d="M408 302c0 20.998 3.265 32 20.5 32s20.5-11.002 20.5-32h-41z" fill="#89C5CC"/></g></g></svg>